<?xml version="1.0" encoding="UTF-8"?>
<svg width="55px" height="55px" viewBox="0 0 55 55" version="1.1" xmlns="http://www.w3.org/2000/svg" xmlns:xlink="http://www.w3.org/1999/xlink">
    <!-- Generator: Sketch 54.1 (76490) - https://sketchapp.com -->
    <title>002-sunny</title>
    <desc>Created with Sketch.</desc>
    <g id="002-sunny" stroke="none" stroke-width="1" fill="none" fill-rule="evenodd">
        <path d="M42.7791443,18.8676997 C42.7791443,17.3534813 45.5168457,15.4996942 45.1440887,14.1036036 C44.7588806,12.6587802 41.4519272,12.4260335 40.7211991,11.160936 C39.9803543,9.87790484 41.4246903,6.89391211 40.3854065,5.85259451 C39.3461227,4.81127691 36.3679581,6.25843933 35.0874329,5.51614481 C33.8251953,4.78437655 33.5929032,1.47095157 32.1509018,1.08498955 C30.7575378,0.71150318 28.9069824,3.45456213 27.3961105,3.45456213 C25.8852386,3.45456213 24.0350724,0.71150318 22.6413193,1.08498955 C21.199707,1.47095157 20.9670257,4.78437655 19.7047883,5.51653465 C18.424263,6.25882917 15.4460983,4.81166674 14.4068146,5.85298434 C13.3675308,6.89430195 14.8118668,9.87790484 14.0710221,11.1613258 C13.3402939,12.4260335 10.0333405,12.6587802 9.64813232,14.1036036 C9.27576449,15.4996942 12.0134659,17.3534813 12.0134659,18.8676997 C12.0134659,20.3815282 9.27576449,22.2353152 9.64813232,23.6317958 C10.0337296,25.0762292 13.3406829,25.3089759 14.0710221,26.5740736 C14.8118668,27.8571046 13.3675308,30.8410974 14.4068146,31.882415 C15.4460983,32.9237325 18.424263,31.4765701 19.7047883,32.2188646 C20.9674149,32.9506329 21.199707,36.2644478 22.6413193,36.6504097 C24.0350724,37.0235063 25.8852386,34.2804473 27.3961105,34.2804473 C28.9073715,34.2804473 30.7575378,37.0235063 32.1509018,36.6504097 C33.5929032,36.2640579 33.8251953,32.9506329 35.0878219,32.2188646 C36.3683472,31.4765701 39.3465119,32.9237325 40.3857956,31.882415 C41.4250793,30.8410974 39.9807434,27.8571046 40.7215881,26.5740736 C41.4519272,25.3089759 44.7592697,25.0762292 45.1444779,23.6317958 C45.5168457,22.2353152 42.7791443,20.3815282 42.7791443,18.8676997 L42.7791443,18.8676997 Z" id="Path" fill="#FFEE8C" fill-rule="nonzero"></path>
        <path d="M39.2718049,18.8673099 C39.2718049,24.8774004 34.8247909,29.8469529 29.0470581,30.6516252 C28.5077668,30.7272582 27.9568024,30.7658544 27.3964997,30.7658544 C20.8378449,30.7658544 15.5204163,25.4387996 15.5204163,18.8673099 C15.5204163,12.2958201 20.8378449,6.96876534 27.3964997,6.96876534 C27.9568024,6.96876534 28.5077668,7.00736146 29.0470581,7.08299446 C34.8244019,7.88805651 39.2718049,12.8576092 39.2718049,18.8673099 L39.2718049,18.8673099 Z" id="Path" fill="#F28F44" fill-rule="nonzero"></path>
        <path d="M39.2718049,18.8673099 C39.2718049,24.8774004 34.8247909,29.8469529 29.0470581,30.6516252 C23.2693253,29.8469529 18.8223114,24.8774004 18.8223114,18.8673099 C18.8223114,12.8576092 23.2693253,7.88805651 29.0470581,7.08299446 C34.8244019,7.88805651 39.2718049,12.8576092 39.2718049,18.8673099 Z" id="Path" fill="#FFD073" fill-rule="nonzero"></path>
        <path d="M24.0879898,17.1000718 C23.9288483,17.1000718 23.7697067,17.0392536 23.6483078,16.9176171 C22.8852844,16.1531005 21.6440583,16.1531005 20.8810348,16.9176171 C20.6378479,17.1608901 20.2440796,17.1608901 20.0012817,16.9176171 C19.7584839,16.6739543 19.7584839,16.2794154 20.0012817,16.0361424 C21.2495117,14.7858595 23.2802201,14.7858595 24.5280609,16.0361424 C24.7708587,16.2794154 24.7708587,16.6739543 24.5280609,16.9176171 C24.4066619,17.0392536 24.2471313,17.1000718 24.0879898,17.1000718 Z" id="Path" fill="#CC9236" fill-rule="nonzero"></path>
        <path d="M30.7042313,17.1000718 C30.5450897,17.1000718 30.3859482,17.0392536 30.2641602,16.9176171 C30.0213623,16.6739543 30.0213623,16.2794154 30.2645492,16.0361424 C30.8688201,15.4302991 31.672699,15.0969683 32.5275497,15.0969683 C33.3827896,15.0969683 34.1866684,15.4302991 34.7909393,16.0361424 C35.0337371,16.2794154 35.0337371,16.6739543 34.7909393,16.9176171 C34.5481414,17.1608901 34.153984,17.1608901 33.9115754,16.9176171 C33.5419312,16.5472496 33.0504989,16.3433525 32.5275497,16.3433525 C32.0049896,16.3433525 31.5135575,16.5472496 31.1439132,16.9176171 C31.0225143,17.0392536 30.8633728,17.1000718 30.7042313,17.1000718 L30.7042313,17.1000718 Z" id="Path" fill="#CC9236" fill-rule="nonzero"></path>
        <path d="M27.3961105,22.7440833 C26.1934051,22.7440833 25.0626831,22.2746911 24.2121125,21.4228458 C23.9693146,21.1795728 23.9693146,20.7846441 24.2121125,20.5413711 C24.4549103,20.2980981 24.8490677,20.2980981 25.0914764,20.5413711 C25.7070312,21.1581305 26.5256958,21.4980889 27.3961105,21.4980889 C28.2665252,21.4980889 29.0848007,21.1581305 29.7003556,20.5413711 C29.9431534,20.2980981 30.3373108,20.2980981 30.5801086,20.5413711 C30.8229065,20.7846441 30.8229065,21.1795728 30.5801086,21.4228458 C29.7299271,22.2750811 28.5988159,22.7440833 27.3961105,22.7440833 Z" id="Path" fill="#CC9236" fill-rule="nonzero"></path>
        <path d="M46.4429016,51.9536066 C44.5382614,51.9536066 43.5744629,51.0078049 42.7242813,50.1731133 C41.9639816,49.4273101 41.3636017,48.8378409 40.0935822,48.8378409 C38.8235627,48.8378409 38.2231827,49.4273101 37.462883,50.1731133 C36.6127014,51.0078049 35.6489029,51.9536066 33.7442627,51.9536066 C31.8396225,51.9536066 30.875824,51.0078049 30.0256424,50.1731133 C29.2657318,49.4273101 28.6653519,48.8378409 27.3953324,48.8378409 C26.1253128,48.8378409 25.5249329,49.4273101 24.7650223,50.1731133 C23.9148406,51.0078049 22.9510422,51.9536066 21.0467911,51.9536066 C19.1421509,51.9536066 18.1783524,51.0078049 17.3281707,50.1731133 C16.5678711,49.4273101 15.9674911,48.8378409 14.6978607,48.8378409 C13.4278411,48.8378409 12.8274613,49.4273101 12.0671615,50.1731133 C11.21698,51.0078049 10.2531815,51.9536066 8.34854126,51.9536066 C6.44429021,51.9536066 5.48049161,51.0078049 4.63031006,50.1731133 C3.87001043,49.4273101 3.26963046,48.8378409 2,48.8378409 L2,47.2799581 C3.90464022,47.2799581 4.86804965,48.2257599 5.7182312,49.0604513 C6.47853093,49.8062546 7.0789108,50.3957237 8.34854126,50.3957237 C9.61856079,50.3957237 10.2189408,49.8062546 10.9792404,49.0604513 C11.829422,48.2257599 12.7932205,47.2799581 14.6978607,47.2799581 C16.6021118,47.2799581 17.5659103,48.2257599 18.416092,49.0604513 C19.1763916,49.8062546 19.7767716,50.3957237 21.0467911,50.3957237 C22.3164216,50.3957237 22.9168014,49.8062546 23.6771012,49.0604513 C24.5268936,48.2257599 25.4906921,47.2799581 27.3953324,47.2799581 C29.2999725,47.2799581 30.263382,48.2257599 31.1139526,49.0604513 C31.8738632,49.8062546 32.4742432,50.3957237 33.7442627,50.3957237 C35.0142822,50.3957237 35.6146622,49.8062546 36.3749618,49.0604513 C37.2251434,48.2257599 38.1885529,47.2799581 40.0935822,47.2799581 C41.9982223,47.2799581 42.9620208,48.2257599 43.8122025,49.0604513 C44.5725021,49.8062546 45.1728821,50.3957237 46.4429016,50.3957237 C47.7129211,50.3957237 48.3133011,49.8062546 49.0736007,49.0604513 C49.9237824,48.2257599 50.8875809,47.2799581 52.792221,47.2799581 L52.792221,48.8378409 C51.5222015,48.8378409 50.9218216,49.4273101 50.1615219,50.1731133 C49.3113403,51.0078049 48.3475418,51.9536066 46.4429016,51.9536066 L46.4429016,51.9536066 Z" id="Path" fill="#84ABC1" fill-rule="nonzero"></path>
        <path d="M46.4429016,46.2082314 C44.5382614,46.2082314 43.5744629,45.2624297 42.7242813,44.4277382 C41.9639816,43.6819349 41.3636017,43.0924658 40.0935822,43.0924658 C38.8235627,43.0924658 38.2231827,43.6819349 37.462883,44.4277382 C36.6127014,45.2624297 35.6489029,46.2082314 33.7442627,46.2082314 C31.8396225,46.2082314 30.875824,45.2624297 30.0256424,44.4277382 C29.2657318,43.6819349 28.6653519,43.0924658 27.3953324,43.0924658 C26.1253128,43.0924658 25.5249329,43.6819349 24.7650223,44.4277382 C23.9148406,45.2624297 22.9510422,46.2082314 21.0467911,46.2082314 C19.1421509,46.2082314 18.1783524,45.2624297 17.3281707,44.4277382 C16.5678711,43.6819349 15.9674911,43.0924658 14.6978607,43.0924658 C13.4278411,43.0924658 12.8274613,43.6819349 12.0671615,44.4277382 C11.21698,45.2624297 10.2531815,46.2082314 8.34854126,46.2082314 C6.44429021,46.2082314 5.48049161,45.2624297 4.63031006,44.4277382 C3.87001043,43.6819349 3.26963046,43.0924658 2,43.0924658 L2,41.5345829 C3.90464022,41.5345829 4.86804965,42.4803847 5.7182312,43.3150762 C6.47853093,44.0608794 7.0789108,44.6503486 8.34854126,44.6503486 C9.61856079,44.6503486 10.2189408,44.0608794 10.9792404,43.3150762 C11.829422,42.4803847 12.7932205,41.5345829 14.6978607,41.5345829 C16.6021118,41.5345829 17.5659103,42.4803847 18.416092,43.3150762 C19.1763916,44.0608794 19.7767716,44.6503486 21.0467911,44.6503486 C22.3164216,44.6503486 22.9168014,44.0608794 23.6771012,43.3150762 C24.5268936,42.4803847 25.4906921,41.5345829 27.3953324,41.5345829 C29.2999725,41.5345829 30.263382,42.4803847 31.1139526,43.3150762 C31.8738632,44.0608794 32.4742432,44.6503486 33.7442627,44.6503486 C35.0142822,44.6503486 35.6146622,44.0608794 36.3749618,43.3150762 C37.2251434,42.4803847 38.1885529,41.5345829 40.0935822,41.5345829 C41.9982223,41.5345829 42.9620208,42.4803847 43.8122025,43.3150762 C44.5725021,44.0608794 45.1728821,44.6503486 46.4429016,44.6503486 C47.7129211,44.6503486 48.3133011,44.0608794 49.0736007,43.3150762 C49.9237824,42.4803847 50.8875809,41.5345829 52.792221,41.5345829 L52.792221,43.0924658 C51.5222015,43.0924658 50.9218216,43.6819349 50.1615219,44.4277382 C49.3113403,45.2624297 48.3475418,46.2082314 46.4429016,46.2082314 Z" id="Path" fill="#84ABC1" fill-rule="nonzero"></path>
        <path d="M45.6401901,39.1166676 C45.2110138,39.1166676 44.8627701,38.7681323 44.8627701,38.3377263 C44.8627701,37.4457253 43.7234879,36.691735 42.3748703,36.691735 C41.945694,36.691735 41.5974503,36.3431996 41.5974503,35.9127935 C41.5974503,35.4827773 41.945694,35.1338521 42.3748703,35.1338521 C43.7145386,35.1338521 44.9044036,35.6531465 45.6401901,36.4508011 C46.3763656,35.6531465 47.5658416,35.1338521 48.9055099,35.1338521 C49.3350754,35.1338521 49.68293,35.4827773 49.68293,35.9127935 C49.68293,36.3431996 49.3350754,36.691735 48.9055099,36.691735 C47.5568924,36.691735 46.4176102,37.4457253 46.4176102,38.3377263 C46.4176102,38.7681323 46.0697555,39.1166676 45.6401901,39.1166676 Z" id="Path" fill="#4D87A1" fill-rule="nonzero"></path>
        <path d="M48.9572601,33.8820099 C48.5276947,33.8820099 48.1798401,33.5334745 48.1798401,33.1030684 C48.1798401,32.2106776 47.0405579,31.4570771 45.6919403,31.4570771 C45.262764,31.4570771 44.9145203,31.1085417 44.9145203,30.6781357 C44.9145203,30.2481195 45.262764,29.8991943 45.6919403,29.8991943 C47.0316086,29.8991943 48.2210846,30.4184886 48.9572601,31.2161433 C49.6934357,30.4184886 50.8829117,29.8991943 52.2225799,29.8991943 C52.6521453,29.8991943 53,30.2481195 53,30.6781357 C53,31.1085417 52.6521453,31.4570771 52.2225799,31.4570771 C50.8739624,31.4570771 49.7346802,32.2110674 49.7346802,33.1030684 C49.7346802,33.5334745 49.3868255,33.8820099 48.9572601,33.8820099 Z" id="Path" fill="#4D87A1" fill-rule="nonzero"></path>
    </g>
</svg>