<?xml version="1.0" encoding="UTF-8"?>
<svg width="55px" height="55px" viewBox="0 0 55 55" version="1.1" xmlns="http://www.w3.org/2000/svg" xmlns:xlink="http://www.w3.org/1999/xlink">
    <!-- Generator: Sketch 54.1 (76490) - https://sketchapp.com -->
    <title>003-snow</title>
    <desc>Created with Sketch.</desc>
    <g id="003-snow" stroke="none" stroke-width="1" fill="none" fill-rule="evenodd">
        <path d="M53,26.964613 C53,31.7485469 49.1619263,35.6269659 44.4258118,35.6269659 L13.399826,35.6269659 C7.10459139,35.6269659 2.0003891,30.4706818 2.0003891,24.1073065 C2.0003891,17.7458972 7.10459139,12.587647 13.399826,12.587647 C13.964798,12.587647 14.5200424,12.6316842 15.064003,12.7111085 C17.6386719,7.54499453 22.9331436,4 29.0497818,4 C36.4504471,4 42.6511307,9.19245765 44.2795105,16.1684218 C44.442154,16.8643668 44.5596619,17.5783986 44.6273651,18.3054055 L44.6273651,18.3069783 C49.2681503,18.4143189 53,22.2487008 53,26.964613 Z" id="Path" fill="#D3DDEA" fill-rule="nonzero"></path>
        <path d="M34.4889984,4.98258003 C32.7944718,4.34679289 30.9614258,4.00039319 29.0497818,4.00039319 C22.9331436,4.00039319 17.6402283,7.54538769 15.0636139,12.710322 L15.0636139,12.7118948 C14.5200424,12.6320774 13.964798,12.5880402 13.399826,12.5880402 C7.103035,12.5884334 2,17.7462903 2,24.1080928 C2,30.4710749 7.103035,35.6277524 13.399826,35.6277524 L18.9098587,35.6277524 C13.2356262,35.6277524 8.63803101,30.9802551 8.63803101,25.2479486 C8.63803101,20.1612589 12.2589875,15.9285763 17.0398483,15.0407549 C17.5129928,14.9515009 17.9974212,14.8960613 18.4911881,14.8764019 C18.6297074,14.8716835 18.769783,14.8681448 18.9098587,14.8681448 C20.7537995,14.8681448 22.4852905,15.3592382 23.9805985,16.2215024 C23.7728195,14.7588382 22.2767334,13.3889668 20.0709305,12.2852845 C21.282196,8.14578775 25.4043122,4.30668764 34.4889984,4.98258003 L34.4889984,4.98258003 Z" id="Path" fill="#84ABC1" fill-rule="nonzero"></path>
        <path d="M18.4729004,43.8898386 C18.2577286,43.5123769 17.7799149,43.3830177 17.4067688,43.6008445 L15.806015,44.534669 L15.806015,42.66702 C15.806015,42.2313662 15.456604,41.8782823 15.0254822,41.8782823 C14.5943604,41.8782823 14.2449494,42.2313662 14.2449494,42.66702 L14.2449494,44.534669 L12.6441956,43.6008445 C12.2706604,43.3830177 11.7932358,43.5123769 11.5776749,43.8898386 C11.3621139,44.2669072 11.4901276,44.7493504 11.8636628,44.9671772 L13.4640274,45.9010018 L11.8636628,46.8348264 C11.4901276,47.0526532 11.3621139,47.5350964 11.5776749,47.9125581 C11.7224198,48.1653789 11.9846725,48.306927 12.2547074,48.306927 C12.3870011,48.306927 12.5212402,48.2727195 12.6441956,48.201159 L14.2449494,47.2673345 L14.2449494,49.1349836 C14.2449494,49.5706373 14.5943604,49.9237213 15.0254822,49.9237213 C15.456604,49.9237213 15.806015,49.5706373 15.806015,49.1349836 L15.806015,47.2673345 L17.4067688,48.201159 C17.5297241,48.2727195 17.6639633,48.306927 17.796257,48.306927 C18.0659027,48.306927 18.3285446,48.1653789 18.4729004,47.9125581 C18.6884613,47.5350964 18.5604477,47.0526532 18.1873016,46.8348264 L16.5865479,45.9010018 L18.1873016,44.9671772 C18.5604477,44.7493504 18.6884613,44.2669072 18.4729004,43.8898386 L18.4729004,43.8898386 Z" id="Path" fill="#D3DDEA" fill-rule="nonzero"></path>
        <path d="M30.9474182,43.8898386 C30.7322464,43.5123769 30.2544327,43.3830177 29.8812866,43.6008445 L28.2805329,44.534669 L28.2805329,42.66702 C28.2805329,42.2313662 27.9311218,41.8782823 27.5,41.8782823 C27.0688782,41.8782823 26.7194671,42.2313662 26.7194671,42.66702 L26.7194671,44.534669 L25.1187134,43.6008445 C24.7451782,43.3830177 24.2677536,43.5123769 24.0525818,43.8898386 C23.8370208,44.2669072 23.9646453,44.7493504 24.3381805,44.9671772 L25.9389343,45.9010018 L24.3381805,46.8348264 C23.9646453,47.0526532 23.8370208,47.5350964 24.0525818,47.9125581 C24.1969376,48.1653789 24.4591903,48.306927 24.7292252,48.306927 C24.8615189,48.306927 24.9957581,48.2727195 25.1187134,48.201159 L26.7194671,47.2673345 L26.7194671,49.1349836 C26.7194671,49.5706373 27.0688782,49.9237213 27.5,49.9237213 C27.9311218,49.9237213 28.2805329,49.5706373 28.2805329,49.1349836 L28.2805329,47.2673345 L29.8812866,48.201159 C30.0042419,48.2727195 30.1384811,48.306927 30.2707748,48.306927 C30.5408097,48.306927 30.8030624,48.1653789 30.9474182,47.9125581 C31.1629792,47.5350964 31.0353547,47.0526532 30.6618195,46.8348264 L29.0610657,45.9010018 L30.6618195,44.9671772 C31.0353547,44.7493504 31.1633682,44.2669072 30.9474182,43.8898386 L30.9474182,43.8898386 Z" id="Path" fill="#D3DDEA" fill-rule="nonzero"></path>
        <path d="M43.1367264,46.8348264 L41.5359726,45.9010018 L43.1367264,44.9671772 C43.5098724,44.7493504 43.6378861,44.2669072 43.4223251,43.8898386 C43.2067642,43.5123769 42.7293396,43.3830177 42.3558044,43.6008445 L40.7554398,44.534669 L40.7554398,42.66702 C40.7554398,42.2313662 40.4060287,41.8782823 39.9745178,41.8782823 C39.543396,41.8782823 39.193985,42.2313662 39.193985,42.66702 L39.193985,44.534669 L37.5932312,43.6008445 C37.219696,43.3830177 36.7422714,43.5123769 36.5270996,43.8898386 C36.3115387,44.2669072 36.4395523,44.7493504 36.8126984,44.9671772 L38.4134521,45.9010018 L36.8126984,46.8348264 C36.4395523,47.0526532 36.3115387,47.5350964 36.5270996,47.9125581 C36.6718445,48.1653789 36.9340973,48.306927 37.203743,48.306927 C37.3364258,48.306927 37.470665,48.2727195 37.5932312,48.201159 L39.193985,47.2673345 L39.193985,49.1349836 C39.193985,49.5706373 39.543396,49.9237213 39.9745178,49.9237213 C40.4060287,49.9237213 40.7554398,49.5706373 40.7554398,49.1349836 L40.7554398,47.2673345 L42.3558044,48.201159 C42.4791488,48.2727195 42.6129989,48.306927 42.7456818,48.306927 C43.0153275,48.306927 43.2775802,48.1653789 43.4223251,47.9125581 C43.6378861,47.5350964 43.5098724,47.0526532 43.1367264,46.8348264 L43.1367264,46.8348264 Z" id="Path" fill="#D3DDEA" fill-rule="nonzero"></path>
    </g>
</svg>