<?xml version="1.0" encoding="UTF-8"?>
<svg width="55px" height="55px" viewBox="0 0 55 55" version="1.1" xmlns="http://www.w3.org/2000/svg" xmlns:xlink="http://www.w3.org/1999/xlink">
    <!-- Generator: Sketch 54.1 (76490) - https://sketchapp.com -->
    <title>004-fog</title>
    <desc>Created with Sketch.</desc>
    <g id="004-fog" stroke="none" stroke-width="1" fill="none" fill-rule="evenodd">
        <path d="M48.5187454,25.9353602 C48.5187454,24.0717473 51.8895111,21.7894938 51.4311523,20.070495 C50.9564514,18.2918574 46.8845291,18.0053576 45.984932,16.448124 C45.0728836,14.8682822 46.8514557,11.194848 45.5717087,9.91281015 C44.2919617,8.63077229 40.6250916,10.4125282 39.0480728,9.49845735 C37.4936218,8.59763969 37.2076339,4.51842816 35.4321746,4.04287757 C33.7162476,3.58369825 31.4380722,6.96049797 29.5774002,6.96049797 C27.7171174,6.96049797 25.438942,3.58369825 23.7230148,4.04287757 C21.9475555,4.51842816 21.6615677,8.59763969 20.1071167,9.49845735 C18.530098,10.4125282 14.8632279,8.63077229 13.5834808,9.91281015 C12.3037338,11.194848 14.0823059,14.8682822 13.1698685,16.448124 C12.2706604,18.0053576 8.19873812,18.2918574 7.7240372,20.070495 C7.26567838,21.7894938 10.6364441,24.0717473 10.6364441,25.9353602 C10.6364441,27.7993631 7.26567838,30.0816166 7.7240372,31.8006154 C8.19873812,33.5792529 12.2706604,33.8657527 13.1698685,35.4229864 C14.0823059,37.0024382 12.3037338,40.6762623 13.5834808,41.9583002 C14.8632279,43.2399482 18.530098,41.4585821 20.1071167,42.3722631 C21.6615677,43.2734706 21.9475555,47.3526822 23.7230148,47.8278431 C25.438942,48.2874121 27.7171174,44.9106123 29.5774002,44.9106123 C31.4380722,44.9106123 33.7162476,48.2874121 35.4321746,47.8278431 C37.2076339,47.3526822 37.4936218,43.2734706 39.0480728,42.3722631 C40.6250916,41.4585821 44.2919617,43.2399482 45.5717087,41.9583002 C46.8514557,40.6762623 45.0728836,37.0024382 45.984932,35.4229864 C46.8845291,33.8657527 50.9564514,33.5792529 51.4311523,31.8006154 C51.8895111,30.0816166 48.5187454,27.7993631 48.5187454,25.9353602 Z" id="Path" fill="#FFEE8C" fill-rule="nonzero"></path>
        <path d="M44.2001343,25.9353602 C44.2001343,33.3344613 38.7243424,39.452304 31.610054,40.4431645 C30.9458618,40.5363256 30.267662,40.5838808 29.5777893,40.5838808 C21.502037,40.5838808 14.9546662,34.0255689 14.9546662,25.9353602 C14.9546662,17.8451516 21.502037,11.2868399 29.5777893,11.2868399 C30.267662,11.2868399 30.9462509,11.3343949 31.610054,11.4275561 C38.7243424,12.4188064 44.2001343,18.5366491 44.2001343,25.9353602 L44.2001343,25.9353602 Z" id="Path" fill="#F28F44" fill-rule="nonzero"></path>
        <path d="M44.2001343,25.9353602 C44.2001343,33.3344613 38.7243424,39.452304 31.610054,40.4431645 C24.4961548,39.452304 19.0199738,33.3344613 19.0199738,25.9353602 C19.0199738,18.5362593 24.4961548,12.4188064 31.610054,11.4275561 C38.7243424,12.4188064 44.2001343,18.5366491 44.2001343,25.9353602 Z" id="Path" fill="#FFD073" fill-rule="nonzero"></path>
        <path d="M25.5043106,23.7567924 C25.3089828,23.7567924 25.1136551,23.6823415 24.9646301,23.5330497 C24.508995,23.076599 23.9035568,22.8251808 23.2592087,22.8251808 C22.6144714,22.8251808 22.0090332,23.076599 21.5533981,23.5330497 C21.2549592,23.8316331 20.7720871,23.8316331 20.4740372,23.5330497 C20.1759872,23.2344662 20.1759872,22.7503401 20.4740372,22.4517565 C22.0098114,20.9132332 24.508606,20.9132332 26.043991,22.4517565 C26.342041,22.7503401 26.342041,23.2344662 26.043991,23.5330497 C25.8949662,23.6823415 25.6996383,23.7567924 25.5043106,23.7567924 Z" id="Path" fill="#CC9236" fill-rule="nonzero"></path>
        <path d="M38.1414718,23.7567924 C37.9461441,23.7567924 37.7508163,23.6823415 37.6017913,23.5330497 C37.1461563,23.076599 36.5403289,22.8251808 35.8959808,22.8251808 C35.2516326,22.8251808 34.6458053,23.076599 34.1905594,23.5330497 C33.8921204,23.8316331 33.4092484,23.8316331 33.1111984,23.5330497 C32.8131485,23.2344662 32.8131485,22.7503401 33.1111984,22.4517565 C34.6465836,20.9132332 37.1453781,20.9132332 38.6811523,22.4517565 C38.9792023,22.7503401 38.9792023,23.2344662 38.6811523,23.5330497 C38.5321274,23.6823415 38.3367996,23.7567924 38.1414718,23.7567924 Z" id="Path" fill="#CC9236" fill-rule="nonzero"></path>
        <path d="M52.419075,43.5821888 C52.0599365,43.2224075 51.5642243,43.0002239 51.0155945,43.0002239 L46.5382309,43.0002239 C45.443306,43.0002239 44.5549927,42.1099306 44.5549927,41.0122661 C44.5549927,40.4626543 44.3332062,39.9664445 43.9740677,39.6062732 C43.6149292,39.2464919 43.1184387,39.0243083 42.5709762,39.0243083 L30.7793274,39.0243083 C29.6832352,39.0243083 28.7949219,38.1344048 28.7949219,37.0367403 C28.7949219,36.4871285 29.0167083,35.9905288 29.3758468,35.6307474 C29.7349854,35.270966 30.2318649,35.0487826 30.7793274,35.0487826 L46.9658508,35.0487826 C48.061554,35.0487826 48.9498673,34.1588791 48.9498673,33.0608247 C48.9498673,31.9631601 48.061554,31.072867 46.9658508,31.072867 L12.170662,31.072867 C11.0745697,31.072867 10.1862564,31.9631601 10.1862564,33.0608247 C10.1862564,33.6104366 10.408432,34.1066464 10.7675705,34.4668176 C11.126709,34.826599 11.6220321,35.0487826 12.170662,35.0487826 L14.3461151,35.0487826 C15.4422074,35.0487826 16.3305207,35.9386859 16.3305207,37.0367403 C16.3305207,37.5859624 16.1087341,38.082562 15.7495956,38.4423434 C15.3904572,38.8021248 14.8947449,39.0243083 14.3461151,39.0243083 L7.36373136,39.0243083 C6.26880648,39.0243083 5.38049316,39.9142118 5.38049316,41.0122661 C5.38049316,41.5614881 5.60227961,42.0580878 5.96141813,42.4178693 C6.32055664,42.7776506 6.81626887,43.0002239 7.36373136,43.0002239 L17.8954773,43.0002239 C18.9915695,43.0002239 19.8798828,43.8901274 19.8798828,44.9877919 C19.8798828,45.5362344 19.6580964,46.032834 19.2989578,46.3926154 C18.9394303,46.7523969 18.4441071,46.9745803 17.8954773,46.9745803 L3.98440552,46.9745803 C2.88831332,46.9745803 2,47.8644838 2,48.9625381 C2,49.5109806 2.22178645,50.0083599 2.58092496,50.3681413 C2.94006348,50.7279227 3.43694303,50.9504959 3.98440552,50.9504959 L35.6002655,50.9504959 C36.6963578,50.9504959 37.5846711,50.0605925 37.5846711,48.9625381 C37.5846711,48.4140957 37.8064575,47.9167164 38.165596,47.5569351 C38.5251236,47.1967639 39.0216141,46.9745803 39.5690765,46.9745803 L51.0155945,46.9745803 C52.1116867,46.9745803 53,46.0846769 53,44.9877919 C53,44.4385699 52.7782136,43.9419702 52.419075,43.5821888 L52.419075,43.5821888 Z M31.7225037,46.8229498 L26.365776,46.8229498 C25.8183136,46.8229498 25.3229904,46.6007663 24.9638519,46.240985 C24.6043244,45.8808138 24.3825378,45.3846039 24.3825378,44.834992 C24.3825378,43.7373275 25.2708512,42.847424 26.365776,42.847424 L31.7225037,42.847424 C32.2707443,42.847424 32.7664566,43.0696076 33.125595,43.4293889 C33.4847336,43.7891703 33.7069092,44.28577 33.7069092,44.834992 C33.7069092,45.9326566 32.8182068,46.8229498 31.7225037,46.8229498 Z" id="Shape" fill="#D3DDEA" fill-rule="nonzero"></path>
        <path d="M29.5774002,28.8783174 C28.4062118,28.8783174 27.2354126,28.4316116 26.3439865,27.5385898 C26.0455475,27.2400063 26.0455475,26.7558801 26.3435974,26.4572966 C26.6420365,26.1587132 27.1252975,26.1587132 27.4229583,26.4572966 C28.6112671,27.6473427 30.5435334,27.6473427 31.731842,26.4572966 C32.0298919,26.1587132 32.5131531,26.1587132 32.811203,26.4572966 C33.1092529,26.7558801 33.1092529,27.2400063 32.8108139,27.5385898 C31.9193879,28.4316116 30.7485885,28.8783174 29.5774002,28.8783174 Z" id="Path" fill="#CC9236" fill-rule="nonzero"></path>
    </g>
</svg>