<?xml version="1.0" encoding="UTF-8"?>
<svg width="55px" height="55px" viewBox="0 0 55 55" version="1.1" xmlns="http://www.w3.org/2000/svg" xmlns:xlink="http://www.w3.org/1999/xlink">
    <!-- Generator: Sketch 54.1 (76490) - https://sketchapp.com -->
    <title>006-hurricane</title>
    <desc>Created with Sketch.</desc>
    <g id="006-hurricane" stroke="none" stroke-width="1" fill="none" fill-rule="evenodd">
        <polygon id="Path" fill="#D3DDEA" fill-rule="nonzero" points="45.6277389 32.7707366 45.6277389 52.9089509 14.3426132 52.9089509 14.3426132 32.7707366 29.9847869 17.1285629"></polygon>
        <polygon id="Path" fill="#091B40" fill-rule="nonzero" points="47.9841232 32.3544006 33.9364777 11.1477204 12.7301864 25.1949768 9.40727994 20.1791 35.6298371 2.80932617 53 29.0318832"></polygon>
        <polygon id="Path" fill="#FFFFFF" fill-rule="nonzero" points="23.6222381 31.2077255 36.7076416 31.2077255 36.7076416 44.293129 23.6222381 44.293129"></polygon>
        <path d="M22.8409271,30.4264145 L22.8409271,45.07444 L37.4889526,45.07444 L37.4889526,30.4264145 L22.8409271,30.4264145 Z M24.4035491,31.9890365 L29.3836288,31.9890365 L29.3836288,43.511818 L24.4035491,43.511818 L24.4035491,31.9890365 Z M35.9263306,43.511818 L30.9462509,43.511818 L30.9462509,31.9890365 L35.9263306,31.9890365 L35.9263306,43.511818 Z" id="Shape" fill="#091B40" fill-rule="nonzero"></path>
        <path d="M20.48143,9.82984164 L2.85718539,9.82984164 C2.42567449,9.82984164 2.07587435,9.4800415 2.07587435,9.0485306 C2.07587435,8.6170197 2.42567449,8.26721957 2.85718539,8.26721957 L20.48143,8.26721957 C21.7786865,8.26721957 22.8339233,7.21198275 22.8339233,5.91511541 C22.8339233,4.61785889 21.7786865,3.56262207 20.48143,3.56262207 C19.1841736,3.56262207 18.1289368,4.61785889 18.1289368,5.91511541 C18.1289368,6.34623713 17.7795257,6.69603727 17.3480148,6.69603727 C16.9161148,6.69603727 16.5667038,6.34623713 16.5667038,5.91511541 C16.5667038,3.75639338 18.3227082,2 20.48143,2 C22.640152,2 24.3965454,3.75600431 24.3965454,5.91511541 C24.3965454,8.07383723 22.640152,9.82984164 20.48143,9.82984164 Z" id="Path" fill="#D3DDEA" fill-rule="nonzero"></path>
        <path d="M8.08551025,18.903244 L2.85718539,18.903244 C2.42567449,18.903244 2.07587435,18.5534439 2.07587435,18.1223221 C2.07587435,17.6908112 2.42567449,17.3410111 2.85718539,17.3410111 L8.08512118,17.3410111 C9.3823776,17.3410111 10.4376144,16.2857743 10.4376144,14.9885177 C10.4376144,13.6912613 9.3823776,12.6360245 8.08512118,12.6360245 C6.78825373,12.6360245 5.73301692,13.6912613 5.73301692,14.9885177 C5.73301692,15.4200286 5.38321688,15.7698288 4.95170588,15.7698288 C4.52019498,15.7698288 4.17039485,15.4200286 4.17039485,14.9885177 C4.17039485,12.8297958 5.92678833,11.0734024 8.08512118,11.0734024 C10.2442322,11.0734024 12.0002365,12.8297958 12.0002365,14.9885177 C12.0002365,17.1472397 10.2442322,18.903244 8.08551025,18.903244 Z" id="Path" fill="#84ABC1" fill-rule="nonzero"></path>
        <path d="M9.12712858,42.7686386 C6.96840665,42.7686386 5.21240234,41.0122452 5.21240234,38.8535233 C5.21240234,38.4220124 5.5618133,38.0722122 5.9933243,38.0722122 C6.42522428,38.0722122 6.77463534,38.4220124 6.77463534,38.8535233 C6.77463534,40.1507797 7.83026123,41.2060165 9.12712858,41.2060165 C10.4243851,41.2060165 11.4796219,40.1507797 11.4796219,38.8535233 C11.4796219,37.5566559 10.4243851,36.5010299 9.12712858,36.5010299 L2.85718539,36.5010299 C2.42567449,36.5010299 2.07587435,36.1512298 2.07587435,35.7201081 C2.07587435,35.2885971 2.42567449,34.938797 2.85718539,34.938797 L9.12712858,34.938797 C11.2858505,34.938797 13.042244,36.6948014 13.042244,38.8535233 C13.042244,41.0122452 11.2858505,42.7686386 9.12712858,42.7686386 Z" id="Path" fill="#84ABC1" fill-rule="nonzero"></path>
        <path d="M7.15673063,23.3825531 L2.78131104,23.3825531 C2.34980013,23.3825531 2,23.032753 2,22.601242 C2,22.1697311 2.34980013,21.819931 2.78131104,21.819931 L7.15673063,21.819931 C7.58824153,21.819931 7.93804166,22.1697311 7.93804166,22.601242 C7.93804166,23.032753 7.58824153,23.3825531 7.15673063,23.3825531 Z" id="Path" fill="#D3DDEA" fill-rule="nonzero"></path>
        <path d="M10.2815857,27.7575837 L2.78131104,27.7575837 C2.34980013,27.7575837 2,27.4077835 2,26.9762726 C2,26.5451507 2.34980013,26.1953507 2.78131104,26.1953507 L10.2815857,26.1953507 C10.7130966,26.1953507 11.0628967,26.5451507 11.0628967,26.9762726 C11.0628967,27.4077835 10.7130966,27.7575837 10.2815857,27.7575837 Z" id="Path" fill="#84ABC1" fill-rule="nonzero"></path>
        <path d="M13.1982727,31.8201676 L6.1151123,31.8201676 C5.68321223,31.8201676 5.33380127,31.4703674 5.33380127,31.0388565 C5.33380127,30.6077347 5.68321223,30.2579346 6.1151123,30.2579346 L13.1982727,30.2579346 C13.6301727,30.2579346 13.9795837,30.6077347 13.9795837,31.0388565 C13.9795837,31.4703674 13.6301727,31.8201676 13.1982727,31.8201676 Z" id="Path" fill="#D3DDEA" fill-rule="nonzero"></path>
    </g>
</svg>