<?xml version="1.0" encoding="UTF-8"?>
<svg width="19px" height="19px" viewBox="0 0 19 19" version="1.1" xmlns="http://www.w3.org/2000/svg" xmlns:xlink="http://www.w3.org/1999/xlink">
    <!-- Generator: Sketch 54.1 (76490) - https://sketchapp.com -->
    <title>getLocation</title>
    <desc>Created with Sketch.</desc>
    <g id="getLocation" stroke="none" stroke-width="1">
        <path d="M9.5,6.72916667 C11.0275208,6.72916667 12.2708333,7.97208333 12.2708333,9.5 C12.2708333,11.0279167 11.0275208,12.2708333 9.5,12.2708333 C7.97247917,12.2708333 6.72916667,11.0279167 6.72916667,9.5 C6.72916667,7.97208333 7.97247917,6.72916667 9.5,6.72916667 Z M9.5,10.6875 C10.1547083,10.6875 10.6875,10.1547083 10.6875,9.5 C10.6875,8.84529167 10.1547083,8.3125 9.5,8.3125 C8.84529167,8.3125 8.3125,8.84529167 8.3125,9.5 C8.3125,10.1547083 8.84529167,10.6875 9.5,10.6875 Z M18.2083333,8.70833333 C18.6453333,8.70833333 19,9.063 19,9.5 C19,9.937 18.6453333,10.2916667 18.2083333,10.2916667 L16.5782917,10.2916667 C16.21175,13.5885625 13.5885625,16.21175 10.2916667,16.5782917 L10.2916667,18.2083333 C10.2916667,18.6453333 9.937,19 9.5,19 C9.063,19 8.70833333,18.6453333 8.70833333,18.2083333 L8.70833333,16.5782917 C5.4114375,16.21175 2.78825,13.5885625 2.42170833,10.2916667 L0.791666667,10.2916667 C0.354666667,10.2916667 0,9.937 0,9.5 C0,9.063 0.354666667,8.70833333 0.791666667,8.70833333 L2.42170833,8.70833333 C2.78825,5.4114375 5.4114375,2.78825 8.70833333,2.42170833 L8.70833333,0.791666667 C8.70833333,0.354666667 9.063,0 9.5,0 C9.937,0 10.2916667,0.354666667 10.2916667,0.791666667 L10.2916667,2.42170833 C13.5885625,2.78825 16.21175,5.4114375 16.5782917,8.70833333 L18.2083333,8.70833333 Z M9.5,15.0416667 C12.5558333,15.0416667 15.0416667,12.5558333 15.0416667,9.5 C15.0416667,6.44416667 12.5558333,3.95833333 9.5,3.95833333 C6.44416667,3.95833333 3.95833333,6.44416667 3.95833333,9.5 C3.95833333,12.5558333 6.44416667,15.0416667 9.5,15.0416667 Z" id="Combined-Shape"></path>
    </g>
</svg>