<?xml version="1.0" encoding="UTF-8"?>
<svg width="221px" height="70px" viewBox="0 0 221 70" version="1.1" xmlns="http://www.w3.org/2000/svg" xmlns:xlink="http://www.w3.org/1999/xlink">
    <!-- Generator: Sketch 54.1 (76490) - https://sketchapp.com -->
    <title>Logo Small</title>
    <desc>Created with Sketch.</desc>
    <g id="Logo-Small" stroke="none" stroke-width="1" fill="none" fill-rule="evenodd">
        <g id="Logo">
            <path d="M46.1034732,33.063406 L42.4581558,33.7025236 C41.0717804,27.6916147 35.6758862,23.1963969 29.25,23.1963969 C21.7766162,23.1963969 15.6963969,29.2765055 15.6963969,36.75 C15.6963969,44.2234945 21.7766162,50.3036031 29.25,50.3036031 C31.0251156,50.3036031 32.7216213,49.9605786 34.2767144,49.3373368 L35.1482078,52.9613592 C33.3071986,53.6332728 31.3206158,54 29.25,54 C19.7384005,54 12,46.2615995 12,36.75 C12,27.2384005 19.7384005,19.5 29.25,19.5 C37.4967953,19.5 44.410484,25.3170717 46.1034732,33.063406 Z M6.12497192,35 C7.16041508,35 8,35.783496 8,36.75 C8,37.716504 7.16041508,38.5 6.12497192,38.5 L2.37502808,38.5 C1.33947262,38.5 0.5,37.7163991 0.5,36.75 C0.5,35.7836009 1.33947262,35 2.37502808,35 L6.12497192,35 Z M29.25,57.5 C30.2163991,57.5 31,58.3395849 31,59.3750281 L31,63.1249719 C31,64.1605274 30.216504,65 29.25,65 C28.283496,65 27.5,64.1604151 27.5,63.1249719 L27.5,59.3750281 C27.5,58.3394726 28.2836009,57.5 29.25,57.5 Z M29.25,8 C30.2163991,8 31,8.83947262 31,9.87502808 L31,13.6249719 C31,14.6605274 30.216504,15.5 29.25,15.5 C28.283496,15.5 27.5,14.6604151 27.5,13.6249719 L27.5,9.87502808 C27.5,8.83947262 28.2836009,8 29.25,8 Z M19.2541241,15.6864809 C19.7602962,16.583477 19.4598869,17.7305311 18.5831443,18.2483961 C17.7069506,18.7661488 16.5854666,18.4593615 16.079075,17.5619161 L14.2458759,14.3135209 C13.7397038,13.4165248 14.0401131,12.2694707 14.9168557,11.7516057 C15.7935984,11.2336284 16.914753,11.5410896 17.420925,12.4380857 L19.2541241,15.6864809 Z M10.0619943,23.5791179 C10.9590093,24.0852767 11.2662524,25.2064017 10.7484888,26.0831213 C10.2303882,26.9602801 9.0830852,27.2601325 8.1865195,26.7540836 L4.93805564,24.9209326 C4.0410406,24.4147739 3.73368516,23.2936488 4.25156109,22.4169292 C4.76932469,21.5402096 5.91640304,21.2395887 6.81353042,21.745967 L10.0619943,23.5791179 Z M53.7484407,22.4168967 C54.2663129,23.2936318 53.9589597,24.4147768 53.0619511,24.9209445 L49.8135104,26.754128 C48.9170634,27.2600761 47.7696562,26.9603282 47.2515593,26.0831539 C46.7336871,25.2064187 47.0410403,24.0852737 47.9380489,23.579106 L51.1864896,21.7459225 C52.0836106,21.2396451 53.2305685,21.5401615 53.7484407,22.4168967 Z M10.7484171,46.916856 C11.2662875,47.793599 10.9590477,48.9147539 10.0619298,49.4209261 L6.8135005,51.2541258 C5.91705668,51.7600784 4.76965352,51.4603279 4.25155842,50.5831457 C3.73368799,49.7064028 4.04104016,48.5852479 4.93804566,48.0790757 L8.18647499,46.2458759 C9.08348049,45.7397037 10.230659,46.0401131 10.7484171,46.916856 Z M43.0831443,11.7516529 C43.9598869,12.2696248 44.2602962,13.4166667 43.7541241,14.3135409 L41.920925,17.5619015 C41.4145334,18.4594497 40.2931592,18.7661214 39.4168557,18.2483743 C38.5401131,17.7305148 38.2397038,16.5834729 38.7458759,15.6864863 L40.579075,12.4381257 C41.085247,11.5411391 42.2062918,11.2335688 43.0831443,11.7516529 Z M18.5831443,54.7516774 C19.4598869,55.2695369 19.7602962,56.4165788 19.2541241,57.3135654 L17.420925,60.561926 C16.9145334,61.4593619 15.7931592,61.7661459 14.9168557,61.2483988 C14.0401131,60.7305393 13.7397038,59.5834974 14.2458759,58.6865108 L16.079075,55.4381502 C16.5851372,54.5410513 17.7064016,54.2335933 18.5831443,54.7516774 Z M29.1051258,26.5 C30.1514659,26.5 30.9998865,27.3483152 31,28.3946652 C31,29.4411286 30.1515793,30.2894438 29.1052393,30.2894438 C25.6228107,30.2894438 22.7895215,33.1226463 22.7895215,36.6052213 C22.7895215,37.6516848 21.9411008,38.5 20.8947607,38.5 C19.8483072,38.5 19,37.6515713 19,36.6052213 C19,31.0332375 23.5330811,26.5 29.1051258,26.5 Z" id="Combined-Shape" fill="#FFB700" fill-rule="evenodd"></path>
            <text id="WeatherNow" font-family="Ubuntu-Medium, Ubuntu Medium" font-size="30" font-weight="normal" fill="#FFFFFF">
                <tspan x="36.225" y="60">WeatherNow</tspan>
            </text>
        </g>
    </g>
</svg>