<?xml version="1.0" encoding="UTF-8"?>
<svg width="441px" height="140px" viewBox="0 0 441 140" version="1.1" xmlns="http://www.w3.org/2000/svg" xmlns:xlink="http://www.w3.org/1999/xlink">
    <!-- Generator: Sketch 54.1 (76490) - https://sketchapp.com -->
    <title>Logo</title>
    <desc>Created with Sketch.</desc>
    <g id="Logo" stroke="none" stroke-width="1" fill="none" fill-rule="evenodd">
        <path d="M92.2069464,66.126812 L84.9163115,67.4050473 C82.1435607,55.3832294 71.3517724,46.3927939 58.5,46.3927939 C43.5532325,46.3927939 31.3927939,58.5530111 31.3927939,73.5 C31.3927939,88.4469889 43.5532325,100.607206 58.5,100.607206 C62.0502312,100.607206 65.4432425,99.9211572 68.5534288,98.6746736 L70.2964156,105.922718 C66.6143973,107.266546 62.6412315,108 58.5,108 C39.476801,108 24,92.523199 24,73.5 C24,54.476801 39.476801,39 58.5,39 C74.9935907,39 88.820968,50.6341435 92.2069464,66.126812 Z M12.2499438,70 C14.3208302,70 16,71.5669921 16,73.5 C16,75.4330079 14.3208302,77 12.2499438,77 L4.75005615,77 C2.67894524,77 1,75.4327983 1,73.5 C1,71.5672017 2.67894524,70 4.75005615,70 L12.2499438,70 Z M58.5,115 C60.4327983,115 62,116.67917 62,118.750056 L62,126.249944 C62,128.321055 60.4330079,130 58.5,130 C56.5669921,130 55,128.32083 55,126.249944 L55,118.750056 C55,116.678945 56.5672017,115 58.5,115 Z M58.5,16 C60.4327983,16 62,17.6789452 62,19.7500562 L62,27.2499438 C62,29.3210548 60.4330079,31 58.5,31 C56.5669921,31 55,29.3208302 55,27.2499438 L55,19.7500562 C55,17.6789452 56.5672017,16 58.5,16 Z M38.5082483,31.3729619 C39.5205923,33.166954 38.9197738,35.4610622 37.1662885,36.4967922 C35.4139012,37.5322975 33.1709333,36.918723 32.15815,35.1238321 L28.4917517,28.6270417 C27.4794077,26.8330496 28.0802262,24.5389414 29.8337115,23.5032114 C31.5871968,22.4672567 33.8295059,23.0821793 34.84185,24.8761715 L38.5082483,31.3729619 Z M20.1239886,47.1582359 C21.9180187,48.1705533 22.5325049,50.4128035 21.4969777,52.1662427 C20.4607764,53.9205602 18.1661704,54.520265 16.373039,53.5081672 L9.87611127,49.8418652 C8.08208119,48.8295478 7.46737032,46.5872976 8.50312219,44.8338584 C9.53864939,43.0804192 11.8328061,42.4791773 13.6270608,43.491934 L20.1239886,47.1582359 Z M107.496881,44.8337934 C108.532626,46.5872637 107.917919,48.8295536 106.123902,49.841889 L99.6270207,53.508256 C97.8341268,54.5201522 95.5393124,53.9206564 94.5031186,52.1663077 C93.4673741,50.4128374 94.0820806,48.1705475 95.8760979,47.1582121 L102.372979,43.4918451 C104.167221,42.4792901 106.461137,43.0803231 107.496881,44.8337934 Z M21.4968341,93.8337121 C22.532575,95.5871979 21.9180953,97.8295078 20.1238597,98.8418522 L13.627001,102.508252 C11.8341134,103.520157 9.53930704,102.920656 8.50311684,101.166291 C7.46737598,99.4128056 8.08208032,97.1704957 9.87609133,96.1581514 L16.37295,92.4917519 C18.166961,91.4794075 20.461318,92.0802262 21.4968341,93.8337121 Z M86.1662885,23.5033059 C87.9197738,24.5392495 88.5205923,26.8333333 87.5082483,28.6270817 L83.84185,35.1238031 C82.8290667,36.9188995 80.5863184,37.5322428 78.8337115,36.4967485 C77.0802262,35.4610296 76.4794077,33.1669458 77.4917517,31.3729727 L81.15815,24.8762514 C82.1704941,23.0822783 84.4125836,22.4671376 86.1662885,23.5033059 Z M37.1662885,109.503355 C38.9197738,110.539074 39.5205923,112.833158 38.5082483,114.627131 L34.84185,121.123852 C33.8290667,122.918724 31.5863184,123.532292 29.8337115,122.496798 C28.0802262,121.461079 27.4794077,119.166995 28.4917517,117.373022 L32.15815,110.8763 C33.1702745,109.082103 35.4128032,108.467187 37.1662885,109.503355 Z M58.2102516,53 C60.3029317,53 61.999773,54.6966304 62,56.7893303 C62,58.8822573 60.3031587,60.5788876 58.2104785,60.5788876 C51.2456213,60.5788876 45.5790429,66.2452927 45.5790429,73.2104427 C45.5790429,75.3033696 43.8822016,77 41.7895215,77 C39.6966143,77 38,75.3031426 38,73.2104427 C38,62.066475 47.0661623,53 58.2102516,53 Z" id="Combined-Shape" fill="#FFB700"></path>
        <text id="WeatherNow" font-family="Ubuntu-Medium, Ubuntu Medium" font-size="60" font-weight="normal" fill="#FFFFFF">
            <tspan x="72.45" y="120">WeatherNow</tspan>
        </text>
    </g>
</svg>