<?xml version="1.0" encoding="UTF-8"?>
<svg width="55px" height="55px" viewBox="0 0 55 55" version="1.1" xmlns="http://www.w3.org/2000/svg" xmlns:xlink="http://www.w3.org/1999/xlink">
    <!-- Generator: Sketch 54.1 (76490) - https://sketchapp.com -->
    <title>001-moonset</title>
    <desc>Created with Sketch.</desc>
    <g id="001-moonset" stroke="none" stroke-width="1" fill="none" fill-rule="evenodd">
        <g transform="translate(2.000000, 2.000000)" fill-rule="nonzero" id="Path">
            <path d="M43.5927201,28.9249253 C43.1604309,32.1312406 41.8623962,35.2430124 39.6982269,37.8824546 L11.8885345,37.8824546 C6.10146329,30.8282495 6.50301359,20.3961498 13.0916291,13.8092162 C15.9830246,10.9172684 19.6148758,9.21859442 23.3770752,8.71163785 C23.3183212,8.76883088 23.2591781,8.82563496 23.2004241,8.88360618 C17.6172409,14.4671315 17.6172409,23.5192044 23.2004241,29.1015625 C28.7843857,34.6854769 37.8371659,34.6854769 43.41996,29.1015625 C43.4791031,29.0435912 43.5359115,28.9836747 43.5927201,28.9249253 L43.5927201,28.9249253 Z" fill="#FFD073"></path>
            <path d="M17.6526489,37.7439461 C17.6989517,37.7906344 17.7456436,37.8369335 17.7931137,37.8824546 L11.8885345,37.8824546 C6.10146329,30.8270823 6.50301359,20.3961498 13.0916291,13.8092162 C15.7853622,11.1145263 19.1234436,9.45553725 22.6097717,8.83263825 C20.816803,9.68742221 19.1370621,10.85813 17.6526489,12.3424272 C10.6368026,19.3577253 10.6368026,30.7298151 17.6526489,37.7439461 Z" fill="#F28F44"></path>
            <path d="M44.1234513,17.8858784 L46.3300324,17.4547902 C47.2969437,17.2657028 47.2969437,15.8829526 46.3300324,15.6938651 L44.1234513,15.262777 C42.8678284,15.0176637 41.8861313,14.0356543 41.6406097,12.7801295 L41.209488,10.5737207 C41.0203857,9.60688496 39.6375275,9.60688496 39.4484253,10.5737207 L39.0173035,12.7801295 C38.7717819,14.0356543 37.7900848,15.0172747 36.534462,15.262777 L34.3278809,15.6938651 C33.3609696,15.8829526 33.3609696,17.2657028 34.3278809,17.4547902 L36.534462,17.8858784 C37.7900848,18.1313807 38.7717819,19.1130011 39.0173035,20.3689149 L39.4484253,22.5749347 C39.6375275,23.5417704 41.0203857,23.5417704 41.209488,22.5749347 L41.6406097,20.3689149 C41.8861313,19.1130011 42.8678284,18.1313807 44.1234513,17.8858784 L44.1234513,17.8858784 Z" fill="#FFEE8C"></path>
            <path d="M11.376091,6.65735498 L13.1900711,6.30291335 C13.9850007,6.1476749 13.9850007,5.01081614 13.1900711,4.85557769 L11.376091,4.50113606 C10.343811,4.29920936 9.53643033,3.49228088 9.33487704,2.45969243 L8.98040771,0.645854084 C8.82515714,-0.149013347 7.68782048,-0.149013347 7.53256991,0.645854084 L7.17810059,2.45969243 C6.97654719,3.49189183 6.16916659,4.29920936 5.13649747,4.50113606 L3.32251742,4.85557769 C2.52797696,5.01081614 2.52797696,6.1476749 3.32251742,6.30330239 L5.13649747,6.65774402 C6.16916659,6.85928167 6.97615812,7.6665992 7.17810059,8.69879861 L7.53256991,10.512637 C7.68782048,11.3075044 8.82476807,11.3075044 8.98040771,10.512637 L9.33487704,8.69879861 C9.53643033,7.66621016 10.343811,6.85928167 11.376091,6.65735498 Z" fill="#FFEE8C"></path>
            <path d="M13.5017395,29.7131785 C13.2204208,29.7131785 12.9585571,29.5353741 12.864006,29.2540775 L12.5702362,28.3763384 C12.4523392,28.0242312 12.6422196,27.6433329 12.9943542,27.5254451 C13.3464889,27.4071682 13.7278061,27.5974228 13.8457031,27.94953 L14.139473,28.827269 C14.2573699,29.1793763 14.0674896,29.5602745 13.7153549,29.6781624 C13.6445389,29.7018955 13.5725555,29.7131785 13.5017395,29.7131785 Z" fill="#CC9236"></path>
            <path d="M17.7779388,28.2821838 C17.4966202,28.2821838 17.2343673,28.1043794 17.1402054,27.8226936 L16.8464355,26.9453436 C16.7285385,26.5932365 16.9184189,26.2119491 17.2709427,26.0940613 C17.6226883,25.9761734 18.0040055,26.1664281 18.1219025,26.5185353 L18.4156723,27.3962743 C18.5335693,27.7483815 18.343689,28.1292798 17.9911652,28.2471675 C17.9203491,28.2709008 17.8483658,28.2821838 17.7779388,28.2821838 Z" fill="#CC9236"></path>
            <path d="M15.9569549,33.9131754 C15.0526886,33.9131754 14.1538696,33.7038565 13.3208084,33.2883311 C12.9885177,33.1225877 12.8531112,32.7191235 13.0188675,32.3868588 C13.1850129,32.0545941 13.5888977,31.9191982 13.9207992,32.0849414 C15.014946,32.6304158 16.255783,32.7171782 17.4152985,32.3288875 C18.5744247,31.9409861 19.513321,31.1247199 20.0588379,30.0306586 C20.2245941,29.6983939 20.628479,29.5633871 20.9603805,29.7291304 C21.2926712,29.8948736 21.4280777,30.2983378 21.2623214,30.6306026 C20.5564957,32.0460347 19.3421174,33.1023562 17.8421402,33.6042549 C17.2246399,33.8108504 16.5896301,33.9131754 15.9569549,33.9131754 Z" fill="#CC9236"></path>
            <path d="M0.775863598,38.6617592 L50.2241364,38.6617592 C50.6525345,38.6617592 51,38.3143208 51,37.8859562 C51,37.4572024 50.6525345,37.1101532 50.2241364,37.1101532 L0.775863598,37.1101532 C0.34746549,37.1101532 0,37.4572024 0,37.8859562 C0,38.3143208 0.34746549,38.6617592 0.775863598,38.6617592 Z" fill="#84ABC1"></path>
            <path d="M3.45442205,42.3847579 L13.2297592,42.3847579 C13.6581574,42.3847579 14.0056229,42.0373195 14.0056229,41.6089548 C14.0056229,41.1805901 13.6581574,40.8331518 13.2297592,40.8331518 L3.45442205,40.8331518 C3.02602384,40.8331518 2.67855835,41.1805901 2.67855835,41.6089548 C2.67855835,42.0373195 3.02602384,42.3847579 3.45442205,42.3847579 Z" fill="#84ABC1"></path>
            <path d="M16.3332138,42.3847579 L47.545578,42.3847579 C47.9739762,42.3847579 48.3214417,42.0373195 48.3214417,41.6089548 C48.3214417,41.1805901 47.9739762,40.8331518 47.545578,40.8331518 L16.3332138,40.8331518 C15.9048157,40.8331518 15.5573502,41.1805901 15.5573502,41.6089548 C15.5573502,42.0373195 15.9048157,42.3847579 16.3332138,42.3847579 Z" fill="#84ABC1"></path>
            <path d="M6.24737549,46.1085347 L33.4010467,46.1085347 C33.8294449,46.1085347 34.1769104,45.7610962 34.1769104,45.3327316 C34.1769104,44.9039779 33.8294449,44.5569285 33.4010467,44.5569285 L6.24737549,44.5569285 C5.81897738,44.5569285 5.47151189,44.9039779 5.47151189,45.3327316 C5.47151189,45.7610962 5.81897738,46.1085347 6.24737549,46.1085347 Z" fill="#84ABC1"></path>
            <path d="M36.5045013,46.1085347 L44.7526245,46.1085347 C45.1810226,46.1085347 45.5284881,45.7610962 45.5284881,45.3327316 C45.5284881,44.9039779 45.1810226,44.5569285 44.7526245,44.5569285 L36.5045013,44.5569285 C36.0761032,44.5569285 35.7286377,44.9039779 35.7286377,45.3327316 C35.7286377,45.7610962 36.0761032,46.1085347 36.5045013,46.1085347 Z" fill="#84ABC1"></path>
            <path d="M8.41971591,49.8319223 L42.5802841,49.8319223 C43.0086823,49.8319223 43.3561478,49.484484 43.3561478,49.0561193 C43.3561478,48.6277546 43.0086823,48.2803162 42.5802841,48.2803162 L8.41971591,48.2803162 C7.9913177,48.2803162 7.64385221,48.6277546 7.64385221,49.0561193 C7.64385221,49.484484 7.9913177,49.8319223 8.41971591,49.8319223 Z" fill="#84ABC1"></path>
        </g>
    </g>
</svg>