<?xml version="1.0" encoding="UTF-8"?>
<svg width="55px" height="55px" viewBox="0 0 55 55" version="1.1" xmlns="http://www.w3.org/2000/svg" xmlns:xlink="http://www.w3.org/1999/xlink">
    <!-- Generator: Sketch 54.1 (76490) - https://sketchapp.com -->
    <title>005-wind-sign</title>
    <desc>Created with Sketch.</desc>
    <g id="005-wind-sign" stroke="none" stroke-width="1" fill="none" fill-rule="evenodd">
        <path d="M24.5516454,36.9932404 C24.48469,36.9932404 24.4177347,36.9846802 24.3519405,36.9671707 L9.96584284,33.1224822 C9.62526104,33.031044 9.38801478,32.720932 9.38801478,32.3664627 L9.38801478,16.7417984 C9.38801478,16.3873291 9.62526104,16.0772171 9.96584284,15.9861679 L24.3519405,12.1410904 C24.5853164,12.0788346 24.8341734,12.1290283 25.0257507,12.276886 C25.217328,12.4251327 25.3295651,12.6543122 25.3295651,12.89711 L25.3295651,36.2111511 C25.3295651,36.453949 25.217328,36.6831283 25.0257507,36.8313752 C24.8883569,36.9375992 24.7211622,36.9932404 24.5516454,36.9932404 Z M10.9434674,31.7653045 L23.7737255,35.1940461 L23.7737255,13.9142151 L10.9434674,17.3429565 L10.9434674,31.7653045 Z" id="Shape" fill="#D3DDEA" fill-rule="nonzero"></path>
        <polygon id="Path" fill="#6B86DE" fill-rule="nonzero" points="48.9895503 15.2990189 48.9895503 33.8092423 23.0236715 38.3648148 23.0236715 10.7438354"></polygon>
        <polygon id="Path" fill="#3159AA" fill-rule="nonzero" points="48.9895503 28.7334442 48.9895503 33.8092423 23.0236715 38.3648148 23.0236715 31.3400192"></polygon>
        <polygon id="Path" fill="#D3DDEA" fill-rule="nonzero" points="40.6487796 13.8363953 40.6487796 35.2718659 31.3644423 36.9018021 31.3644423 12.2076263"></polygon>
        <polygon id="Path" fill="#84ABC1" fill-rule="nonzero" points="40.6487796 29.5703964 40.6487796 35.2718659 31.3644423 36.9018021 31.3644423 30.5026779"></polygon>
        <polyline id="Path" fill="#84ABC1" fill-rule="nonzero" points="11.6931344 9.40883634 11.6931344 53 7.91886886 53 7.91886886 9.3026123"></polyline>
        <polyline id="Path" fill="#4D87A1" fill-rule="nonzero" points="9.74678677 9.40883634 9.74678677 53 7.91886886 53 7.91886886 9.3026123"></polyline>
        <path d="M13.8043545,5.92328646 C13.8043545,8.08979037 12.0573247,9.84618375 9.90237078,9.84618375 C7.74702976,9.84618375 6,8.08979037 6,5.92328646 C6,3.75639338 7.74702976,2 9.90237078,2 C12.0573247,2 13.8043545,3.75639338 13.8043545,5.92328646 Z" id="Path" fill="#84ABC1" fill-rule="nonzero"></path>
        <path d="M13.8047416,5.92328646 C13.8047416,7.59368896 12.76558,9.02012629 11.3022393,9.58626554 C9.83851171,9.02012629 8.80051123,7.59368896 8.80051123,5.92328646 C8.80051123,4.25288396 9.83851171,2.82527921 11.3022393,2.25913996 C12.76558,2.82527921 13.8047416,4.25288396 13.8047416,5.92328646 Z" id="Path" fill="#D3DDEA" fill-rule="nonzero"></path>
    </g>
</svg>